<svg width="32" height="32" viewBox="0 0 32 32" fill="none" xmlns="http://www.w3.org/2000/svg">
<path fill-rule="evenodd" clip-rule="evenodd" d="M15.0938 10.0457C13.9942 10.3331 13.2507 11.1448 12.8696 12.4739C12.7926 12.7421 12.5478 14.4294 12.3256 16.2234C11.8215 20.2928 11.8466 20.1409 11.6437 20.3438C11.4012 20.5863 10.9758 20.564 10.8025 20.2996C10.6706 20.0982 10.4871 18.8821 9.95174 14.6595C9.74227 13.0075 9.59043 12.3348 9.28587 11.7104C8.97166 11.0661 8.61097 10.6689 8.06566 10.3669C7.62025 10.1202 7.52177 10.1018 6.64866 10.1018C5.7768 10.1018 5.67662 10.1205 5.23452 10.3654C4.20492 10.9357 3.72887 12.0108 3.57051 14.1233C3.54102 14.5165 3.39464 16.3931 3.24521 18.2934C3.09579 20.1937 2.98614 21.9229 3.00142 22.1361L3.0293 22.5238L4.03182 22.549C4.92236 22.5714 5.05346 22.5551 5.20646 22.4021C5.43756 22.171 5.43801 22.1671 5.80593 17.1618C6.15214 12.4517 6.16447 12.3807 6.63686 12.3807C7.13446 12.3807 7.16654 12.4907 7.68424 15.9716C8.39855 20.7747 8.44162 20.97 8.94923 21.7049C9.46836 22.4566 10.5734 22.911 11.5996 22.7949C12.6031 22.6814 13.246 22.2612 13.6896 21.429C14.0574 20.7389 14.0733 20.6568 14.6429 16.5132C14.913 14.548 15.1739 12.8356 15.2225 12.7076C15.3668 12.328 16.013 12.2789 16.2025 12.633C16.2469 12.7161 16.5279 14.4124 16.8268 16.4027C17.1258 18.3931 17.4333 20.2628 17.5102 20.5577C17.7661 21.5385 18.3109 22.2154 19.1554 22.6015C19.4748 22.7475 19.7349 22.7865 20.3665 22.783C21.3422 22.7776 21.8113 22.5865 22.4034 21.9535C23.0843 21.2256 23.1349 20.9952 23.98 14.7751C24.125 13.7081 24.285 12.7576 24.3358 12.6629C24.52 12.3187 25.2512 12.3528 25.3602 12.7107C25.4213 12.9114 25.6622 14.8195 26.1309 18.8151C26.3298 20.5108 26.5164 21.9787 26.5455 22.077C26.6756 22.5154 26.8154 22.5685 27.8404 22.5685C29.2075 22.5685 29.1434 22.7631 28.7672 19.7534C28.6013 18.4263 28.3606 16.4558 28.2323 15.3745C27.8692 12.316 27.6274 11.5384 26.809 10.7987C26.1374 10.1918 25.6936 10.0154 24.8348 10.0138C24.2323 10.0126 24.0403 10.0515 23.614 10.2609C22.783 10.6689 22.1932 11.4696 21.902 12.5846C21.8292 12.8634 21.5771 14.665 21.3418 16.5881C20.8771 20.3848 20.844 20.513 20.3291 20.513C19.8296 20.513 19.795 20.392 19.3759 17.1882C19.1619 15.5517 18.93 13.8508 18.8605 13.4084C18.578 11.6078 17.9029 10.5829 16.7297 10.1735C16.2669 10.012 15.4629 9.94918 15.0938 10.0457Z" fill="url(#paint0_linear_13_44)"/>
<defs>
<linearGradient id="paint0_linear_13_44" x1="3" y1="16.4065" x2="29" y2="16.4065" gradientUnits="userSpaceOnUse">
<stop stop-color="#FFA84C"/>
<stop offset="1" stop-color="#AC5BF1"/>
</linearGradient>
</defs>
</svg>
